<?xml version="1.0" encoding="UTF-8" standalone="no"?>
<!-- Created with Inkscape (http://www.inkscape.org/) -->

<svg
   width="210mm"
   height="297mm"
   viewBox="0 0 210 297"
   version="1.1"
   id="svg1"
   xml:space="preserve"
   xmlns:inkscape="http://www.inkscape.org/namespaces/inkscape"
   xmlns:sodipodi="http://sodipodi.sourceforge.net/DTD/sodipodi-0.dtd"
   xmlns="http://www.w3.org/2000/svg"
   xmlns:svg="http://www.w3.org/2000/svg"><sodipodi:namedview
     id="namedview1"
     pagecolor="#ffffff"
     bordercolor="#000000"
     borderopacity="0.25"
     inkscape:showpageshadow="2"
     inkscape:pageopacity="0.0"
     inkscape:pagecheckerboard="0"
     inkscape:deskcolor="#d1d1d1"
     inkscape:document-units="mm" /><defs
     id="defs1" /><g
     inkscape:label="Vrstva 1"
     inkscape:groupmode="layer"
     id="layer1"><path
       style="fill:#000000"
       d="m 95.193773,215.54883 c -11.659627,-2.04317 -22.209358,-6.79979 -31.485417,-14.19602 -2.735578,-2.18121 -7.470787,-6.89403 -9.775739,-9.72952 -4.265373,-5.24715 -8.915647,-13.43908 -11.258841,-19.83361 -2.605651,-7.11076 -3.911305,-14.76646 -3.909675,-22.92437 0.0022,-11.20111 2.062937,-20.05299 7.012593,-30.12308 8.670158,-17.63947 25.242159,-30.917426 44.435019,-35.602615 5.633886,-1.375293 6.654183,-1.468406 16.147267,-1.473596 9.64284,-0.0053 11.11029,0.144204 17.14521,1.746441 11.24461,2.985384 21.53749,8.803998 29.85504,16.8772 20.26475,19.66942 26.21128,49.59723 14.98884,75.43621 -4.21009,9.69349 -11.22149,18.95964 -19.31269,25.52333 -8.24589,6.68919 -18.58768,11.59201 -29.36765,13.92259 -3.35341,0.72499 -3.66828,0.74513 -12.56771,0.80374 -7.864129,0.0518 -9.512815,-0.007 -11.906247,-0.4267 z m 9.520977,-3.51425 c -0.002,-0.1819 -0.17967,-2.9501 -0.39435,-6.15156 -0.21469,-3.20146 -0.39147,-5.8506 -0.39286,-5.88698 -10e-4,-0.0364 -0.92526,-0.0707 -2.05304,-0.0763 -1.12778,-0.006 -3.895309,-0.17494 -6.150053,-0.37633 -2.254745,-0.2014 -4.118845,-0.34565 -4.142445,-0.32057 -0.10617,0.11284 3.495359,7.39953 4.866863,9.84675 l 1.523033,2.71759 2.513542,0.17026 c 1.38244,0.0936 2.75166,0.20751 3.0427,0.25304 1.06671,0.16687 1.19055,0.14852 1.18661,-0.17589 z m 9.98909,-0.36686 c 1.08819,-0.15074 1.16015,-0.22332 2.42003,-2.44086 1.35373,-2.38271 4.79282,-9.33611 4.79282,-9.69046 0,-0.11211 -0.56555,-0.12972 -1.25678,-0.0391 -0.69122,0.0906 -3.7454,0.28277 -6.78707,0.42706 -3.04167,0.1443 -5.569,0.30105 -5.61629,0.34834 -0.0473,0.0473 0.0881,2.69818 0.30077,5.89087 0.21271,3.1927 0.38855,5.85104 0.39076,5.90743 0.005,0.11622 4.05345,-0.16745 5.75576,-0.40325 z m 10.14608,-2.21222 c 1.27331,-0.35192 5.1171,-4.28421 10.70281,-10.94923 l 1.30397,-1.55593 -0.92157,0.21143 c -0.50686,0.11628 -2.70751,0.51953 -4.89032,0.89609 l -3.96875,0.68467 -0.45634,0.92441 c -0.25099,0.50843 -1.49784,3.06754 -2.77078,5.68691 -1.27293,2.61938 -2.35642,4.84879 -2.40774,4.95425 -0.0513,0.10546 0.48115,0.0158 1.18327,-0.19931 0.70213,-0.21508 1.70357,-0.50906 2.22545,-0.65329 z m -6.10823,-14.04539 c 5.48468,-0.43385 5.14206,-0.31335 5.82006,-2.04688 2.00876,-5.13608 5.7763,-17.64391 5.42148,-17.99873 -0.0671,-0.0671 -1.70123,0.1295 -3.63129,0.43699 -6.07855,0.96842 -13.10607,1.63882 -17.17902,1.63882 h -2.08358 l 0.14391,2.4474 c 0.19772,3.36248 0.66052,13.97185 0.66052,15.14188 v 0.95484 l 3.77031,-0.15635 c 2.07367,-0.086 5.25859,-0.27408 7.07761,-0.41797 z m -15.08378,-1.10261 c -0.001,-0.76398 -0.11539,-3.65125 -0.25333,-6.41615 -0.13793,-2.76489 -0.28562,-6.23237 -0.3282,-7.70551 l -0.0774,-2.67844 -1.95815,-0.16583 c -1.076979,-0.0912 -2.595026,-0.16584 -3.373435,-0.16584 -1.360092,0 -1.415288,0.0278 -1.415288,0.7121 0,0.39165 -0.135277,2.04643 -0.300616,3.67728 l -0.300615,2.96517 -1.274085,0.97163 c -1.211217,0.92369 -1.362843,0.96832 -3.072822,0.90448 l -1.798737,-0.0672 -0.608668,1.09507 c -0.522912,0.94077 -0.570631,1.2365 -0.33869,2.09897 0.148488,0.55216 0.38609,1.82487 0.528006,2.82826 0.141915,1.00338 0.356965,1.92327 0.47789,2.0442 0.120925,0.12092 1.94316,0.40013 4.049412,0.62046 5.117492,0.53532 5.614501,0.57422 7.996728,0.6259 l 2.05053,0.0445 z m 48.21926,-6.24568 c 4.27954,-1.60771 5.64981,-2.31254 6.39484,-3.28933 0.82466,-1.08118 0.85776,-1.53878 0.15718,-2.1728 -0.3922,-0.35493 -0.52917,-0.81491 -0.52917,-1.77701 v -1.29813 l 1.25677,0.17075 c 0.69122,0.0939 1.44183,0.22089 1.668,0.28219 0.29199,0.0791 0.67421,-0.43216 1.31814,-1.76323 0.4988,-1.03107 1.04694,-1.95443 1.21808,-2.05192 0.6252,-0.35611 2.95671,-6.3208 4.05102,-10.3637 0.77051,-2.84664 1.57227,-6.61458 1.40747,-6.61458 -0.0774,0 -0.69066,0.39488 -1.36288,0.87752 -0.67223,0.48264 -2.59144,1.68453 -4.26493,2.67087 -1.84735,1.08882 -3.69582,2.43317 -4.70515,3.42196 -1.46372,1.43393 -1.73876,1.86997 -2.30087,3.64772 -0.63285,2.00149 -0.63514,2.04876 -0.26222,5.41394 l 0.37621,3.39481 -0.97158,1.41069 c -0.53437,0.77588 -1.54351,2.12044 -2.24253,2.98792 -1.13126,1.40388 -1.27095,1.71993 -1.27095,2.87556 v 1.29833 l -1.04125,0.17592 c -0.90442,0.1528 -1.86916,0.96886 -1.86916,1.58108 0,0.22817 0.12639,0.19082 2.97298,-0.87856 z m -86.586519,-1.16265 c -3.468669,-6.1523 -6.359211,-12.97969 -8.205309,-19.38073 -0.292136,-1.01294 -0.470973,-1.14914 -4.169031,-3.175 -2.125091,-1.16417 -5.056608,-2.91466 -6.514481,-3.88998 -1.457874,-0.97532 -2.685833,-1.73815 -2.728798,-1.69519 -0.14799,0.14799 0.997646,5.30421 1.780422,8.01323 1.058418,3.66297 2.399127,7.01775 4.263693,10.66881 2.735207,5.35589 2.736336,5.35719 6.122047,7.04078 2.655053,1.32025 9.791756,4.31284 10.325538,4.32974 0.114079,0.004 -0.279257,-0.85664 -0.874081,-1.91166 z m 37.486679,-20.24063 c -0.0957,-3.60164 -0.17434,-7.69182 -0.17466,-9.0893 l -5.7e-4,-2.54085 -3.108848,-0.18497 c -4.244442,-0.25253 -10.292297,-1.08321 -14.720628,-2.0219 -2.026963,-0.42967 -3.756752,-0.78121 -3.843976,-0.78121 -0.171826,0 -0.10417,3.24538 0.129621,6.21771 l 0.145677,1.85208 1.235068,0.01 c 1.186751,0.01 1.2659,0.0598 2.023219,1.28477 0.592223,0.95789 0.81389,1.67902 0.891688,2.90081 l 0.103537,1.62601 2.023887,0.79048 c 1.743392,0.68093 2.445582,0.80297 5.066595,0.88059 l 3.042708,0.0901 0.79375,1.34593 c 0.650113,1.10237 1.012082,1.42175 2.000268,1.76489 1.16318,0.4039 1.20012,0.44935 1.028398,1.26519 -0.202371,0.96145 -0.04533,1.03874 2.239216,1.10211 l 1.29914,0.036 z m 13.97998,6.15186 c 5.16528,-0.44771 13.69501,-1.70087 14.05976,-2.06561 0.0407,-0.0407 -0.39541,-0.84465 -0.96911,-1.78657 l -1.04309,-1.71258 0.25807,-2.24485 c 0.38907,-3.38447 0.53516,-3.10016 -1.70063,-3.30967 -1.69351,-0.15869 -2.0632,-0.2888 -2.69534,-0.94861 -0.61932,-0.64644 -0.94019,-0.7647 -2.07489,-0.7647 -1.04033,0 -1.49233,0.13915 -2.00939,0.6186 -0.61279,0.56821 -0.98135,0.63344 -4.52532,0.80089 l -3.85819,0.1823 -2.68187,-3.05454 -2.68187,-3.05454 v 3.26932 c 0,1.79812 0.0785,5.78883 0.17436,8.86823 l 0.17437,5.59891 2.53761,-0.003 c 1.39569,-0.002 4.56168,-0.1788 7.03553,-0.39322 z M 63.187987,157.66271 c 0.0048,-0.10914 0.689449,-0.95116 1.521355,-1.87115 l 1.512556,-1.67271 1.842001,0.33971 c 1.834019,0.33824 2.288673,0.60354 3.062721,1.78718 0.386677,0.59129 0.501232,0.61258 2.315105,0.43042 1.644025,-0.1651 1.908298,-0.26249 1.908298,-0.70326 0,-0.42384 0.08781,-0.46463 0.511773,-0.23773 0.281475,0.15064 0.579131,0.27389 0.661458,0.27389 0.08233,0 0.149686,-1.17772 0.149686,-2.61715 0,-2.60436 -0.0034,-2.618 -0.694699,-2.79151 -1.978718,-0.49663 -8.42685,-3.09932 -12.337618,-4.9799 -2.438347,-1.17253 -4.512588,-2.05265 -4.609424,-1.95581 -0.253045,0.25304 -0.257824,10.3445 -0.0057,12.10134 l 0.211904,1.47675 1.64018,0.26714 c 2.293328,0.37352 2.300628,0.374 2.310435,0.15279 z m 39.504653,-11.48565 c 0.0957,-2.6427 0.17405,-6.32507 0.17405,-8.18304 v -3.37813 l -1.52135,-0.16523 c -5.991256,-0.65067 -11.084414,-1.58489 -15.373972,-2.81998 -1.507062,-0.43393 -2.795889,-0.73319 -2.864059,-0.66502 -0.254346,0.25435 -1.652707,9.15206 -1.919093,12.21111 -0.439331,5.04506 -0.794357,4.41629 2.959203,5.2409 4.571841,1.00437 9.398944,1.74253 14.054863,2.14928 2.201618,0.19233 4.073448,0.3644 4.159628,0.38236 0.0862,0.018 0.23501,-2.12954 0.33073,-4.77225 z m -25.896374,-1.47894 c 0.43424,-4.68751 1.693116,-13.46008 2.140433,-14.91577 0.101521,-0.33037 -0.431772,-0.67792 -2.304828,-1.50206 l -2.436909,-1.07222 -0.943824,0.49002 c -0.519103,0.26951 -1.853275,1.42169 -2.964827,2.56039 -1.531876,1.5693 -2.061864,2.30409 -2.189829,3.03605 -0.146197,0.83625 -0.40726,1.1174 -1.947746,2.09764 -2.641604,1.6809 -4.02788,3.08501 -4.02788,4.07972 0,0.75081 0.159236,0.89495 2.017174,1.82606 3.215468,1.61143 11.352164,5.02088 12.315413,5.16041 0.09756,0.0141 0.251828,-0.77797 0.342823,-1.76024 z m 60.598544,-7.25253 v -0.96868 l 1.62802,-0.17412 c 1.62225,-0.17349 1.63385,-0.16982 3.27026,1.03483 l 1.64223,1.20894 h 2.40713 2.40713 l 1.00335,-0.97974 c 0.8716,-0.85109 1.0031,-1.1377 1.00153,-2.18281 -0.002,-1.07517 -0.0992,-1.26943 -0.91835,-1.82722 -0.83408,-0.568 -1.12358,-0.61304 -3.2182,-0.50071 -2.29074,0.12285 -2.30604,0.11943 -3.22346,-0.72132 -0.79733,-0.73071 -0.93857,-1.04714 -1.04608,-2.34357 -0.0684,-0.82434 -0.175,-1.4988 -0.23696,-1.4988 -0.062,0 -0.45957,0.17939 -0.88356,0.39864 -0.7485,0.38707 -0.87228,0.65036 -1.4716,3.13016 l -0.18142,0.75066 -1.3787,-1.36157 c -1.19322,-1.17839 -1.47622,-1.33709 -2.10357,-1.17964 -0.98985,0.24843 -1.07802,0.63566 -0.71109,3.12294 0.69047,4.68042 0.84531,5.22743 1.45512,5.14038 0.45175,-0.0645 0.55822,-0.26445 0.55822,-1.04837 z m -25.1892,-7.01012 1.79831,-0.16982 -0.16421,-0.74764 c -0.0903,-0.41119 -0.0198,-1.14696 0.15668,-1.63503 0.28987,-0.80161 0.46778,-0.91774 1.84036,-1.20124 1.13408,-0.23424 1.86565,-0.2396 2.88433,-0.0211 1.7171,0.36825 2.13727,0.20985 2.13727,-0.80575 0,-0.64165 -0.11256,-0.80205 -0.56283,-0.80205 -0.51752,0 -0.55238,-0.10877 -0.433,-1.35112 0.0714,-0.74312 0.28344,-1.44606 0.47119,-1.56209 0.18775,-0.11604 0.96684,-0.28913 1.73132,-0.38464 1.26587,-0.15816 1.45424,-0.27264 2.1099,-1.28218 1.08645,-1.67285 1.74019,-2.29914 2.3999,-2.29914 h 0.59716 l -0.67765,-2.05052 c -0.37272,-1.12779 -0.78125,-2.16363 -0.90787,-2.30187 -0.12661,-0.13825 -0.2302,-0.45113 -0.2302,-0.6953 0,-0.24416 -0.17598,-0.86511 -0.39106,-1.37987 l -0.39106,-0.93594 -1.39488,0.37535 c -3.02569,0.8142 -7.66449,1.47703 -11.35255,1.62214 l -3.87226,0.15235 -0.15428,1.74694 c -0.0849,0.96081 -0.23404,4.93185 -0.33152,8.82453 l -0.17724,7.07761 1.55794,-0.002 c 0.85687,-0.001 2.36719,-0.0783 3.35625,-0.17171 z m -8.97466,-6.37485 c 0.0954,-3.45612 0.24513,-7.42606 0.33265,-8.82208 l 0.15912,-2.53824 -2.08166,-0.17482 c -2.520099,-0.21165 -6.470999,-1.02213 -9.783642,-2.00699 l -2.45037,-0.72851 -1.075387,3.13646 c -0.591464,1.72505 -1.075388,3.28644 -1.075388,3.46975 0,0.18331 0.535781,0.62598 1.190625,0.9837 1.118015,0.61074 1.190625,0.71798 1.190625,1.75836 0,1.06832 -0.04023,1.12137 -1.124479,1.48266 -1.618016,0.53916 -1.566071,1.05739 0.181844,1.81419 1.242136,0.53781 1.463452,0.73881 1.467286,1.33263 0.0063,0.97881 -0.407585,1.04218 -2.517244,0.38539 -1.617647,-0.50361 -1.853868,-0.65938 -1.925394,-1.26967 -0.05997,-0.51169 0.06247,-0.74134 0.463021,-0.86847 0.726446,-0.23056 0.764773,-1.46009 0.04551,-1.46009 -0.411394,0 -0.648002,0.53784 -1.347258,3.06247 -0.466522,1.68435 -0.807502,3.09499 -0.757735,3.13474 0.280575,0.22411 5.582868,1.58974 8.372568,2.15639 2.947791,0.59877 8.113618,1.33541 9.871098,1.40761 l 0.69068,0.0284 z m -30.867536,-5.22166 c 0.677105,-1.38059 0.79306,-1.47839 2.378375,-2.00595 l 1.666567,-0.55459 0.01464,-2.16125 c 0.01413,-2.08646 0.0426,-2.18336 0.822697,-2.80065 0.962719,-0.76179 0.871228,-0.75725 3.48961,-0.1729 l 2.077989,0.46375 -0.178798,1.43105 c -0.150005,1.2006 -0.11182,1.43105 0.237116,1.43105 0.228752,0 0.415913,-0.0303 0.415913,-0.0673 0,-0.037 0.299215,-0.89222 0.664922,-1.90047 0.762674,-2.10268 0.784001,-2.06782 -1.54558,-2.52614 l -1.597944,-0.31438 1.753504,-0.95263 c 0.964427,-0.52394 1.692033,-1.05209 1.616902,-1.17365 -0.07513,-0.12157 -0.825521,-0.56879 -1.667534,-0.99384 -1.794309,-0.90576 -2.364041,-0.84128 -3.789095,0.42883 -0.657348,0.58588 -1.260967,0.88499 -1.785937,0.88499 -0.909652,0 -1.089804,0.65067 -0.333308,1.20383 0.408905,0.299 0.350455,0.35662 -0.529167,0.52164 -0.727555,0.13649 -0.988846,0.31755 -0.988846,0.68523 0,0.37885 -0.19198,0.49972 -0.79375,0.49972 -0.705556,0 -0.79375,-0.0882 -0.79375,-0.79375 0,-0.43656 -0.112999,-0.79375 -0.251109,-0.79375 -0.138109,0 -1.26683,1.63711 -2.508269,3.63802 l -2.257161,3.63802 0.920769,0.22472 0.92077,0.22472 v 1.69351 c 0,1.63197 0.02414,1.69351 0.664333,1.69351 0.54214,0 0.795258,-0.26695 1.376141,-1.45135 z m 42.806396,-10.48202 c 2.28684,-0.25113 7.55388,-1.23621 7.78381,-1.45578 0.5011,-0.47854 -9.80175,-20.883848 -10.67598,-21.144322 -0.15556,-0.04635 -0.897,-0.156053 -1.64765,-0.243794 l -1.36482,-0.159528 -0.16703,2.18871 c -0.24078,3.154993 -0.93772,17.770254 -0.93884,19.688074 l -9.5e-4,1.62437 2.31511,-0.11812 c 1.2733,-0.065 3.38666,-0.23579 4.69635,-0.37961 z m -11.14454,-4.1319 c 0.23554,-5.548892 0.6491,-13.673629 0.84214,-16.544625 l 0.15567,-2.315104 h -1.5568 c -0.85623,0 -1.74669,0.148828 -1.97879,0.330729 -1.38905,1.088615 -10.745604,19.64724 -10.187012,20.20583 0.615752,0.61576 11.611012,2.8933 12.387612,2.56596 0.088,-0.0371 0.2397,-1.94634 0.33718,-4.24279 z m 25.58632,0.378 c 2.7429,-1.21688 5.19949,-2.50595 5.40294,-2.83513 0.24113,-0.39017 -4.48654,-5.734831 -9.27853,-10.489448 l -4.04025,-4.008725 -1.85999,-0.423046 c -1.023,-0.232676 -1.91102,-0.423047 -1.97338,-0.423047 -0.0624,0 0.65289,1.398984 1.58944,3.108854 2.01723,3.682891 4.83017,9.449017 6.45369,13.229162 0.64061,1.49159 1.29502,2.71198 1.45423,2.71198 0.15921,0 1.17254,-0.39177 2.25185,-0.8706 z M 89.598242,98.72677 c 1.140423,-2.473855 3.044549,-6.274939 4.231389,-8.446855 1.186841,-2.171915 2.157892,-3.995642 2.157892,-4.052725 0,-0.05708 -0.208359,-0.04443 -0.463021,0.02811 -0.254661,0.07254 -1.144998,0.267057 -1.978526,0.432249 -0.833529,0.165192 -1.488373,0.390167 -1.455209,0.499943 0.03316,0.109777 -1.854515,2.096179 -4.194843,4.414227 -3.834433,3.79793 -7.783401,8.139092 -7.783401,8.556411 0,0.30388 2.404601,1.61138 2.987347,1.62437 0.32149,0.007 1.298903,0.35554 2.172028,0.77417 0.873125,0.41863 1.737203,0.74019 1.920173,0.71458 0.18297,-0.0256 1.265747,-2.07063 2.406171,-4.54448 z"
       id="path1" /></g></svg>
